<svg aria-roledescription="er" viewBox="0 0 949.0787353515625 671" style="max-width: 100%;" xmlns="http://www.w3.org/2000/svg" width="100%" id="graph-div" height="100%" xmlns:xlink="http://www.w3.org/1999/xlink"><style>@import url("https://cdnjs.cloudflare.com/ajax/libs/font-awesome/6.2.1/css/all.min.css");'</style><style>#graph-div{font-family:"trebuchet ms",verdana,arial,sans-serif;font-size:16px;fill:#ccc;}#graph-div .error-icon{fill:#a44141;}#graph-div .error-text{fill:#ddd;stroke:#ddd;}#graph-div .edge-thickness-normal{stroke-width:2px;}#graph-div .edge-thickness-thick{stroke-width:3.5px;}#graph-div .edge-pattern-solid{stroke-dasharray:0;}#graph-div .edge-pattern-dashed{stroke-dasharray:3;}#graph-div .edge-pattern-dotted{stroke-dasharray:2;}#graph-div .marker{fill:lightgrey;stroke:lightgrey;}#graph-div .marker.cross{stroke:lightgrey;}#graph-div svg{font-family:"trebuchet ms",verdana,arial,sans-serif;font-size:16px;}#graph-div .entityBox{fill:#1f2020;stroke:#81B1DB;}#graph-div .attributeBoxOdd{fill:hsl(0, 0%, 32%);stroke:#81B1DB;}#graph-div .attributeBoxEven{fill:hsl(0, 0%, 22%);stroke:#81B1DB;}#graph-div .relationshipLabelBox{fill:hsl(20, 1.5873015873%, 12.3529411765%);opacity:0.7;background-color:hsl(20, 1.5873015873%, 12.3529411765%);}#graph-div .relationshipLabelBox rect{opacity:0.5;}#graph-div .relationshipLine{stroke:lightgrey;}#graph-div .entityTitleText{text-anchor:middle;font-size:18px;fill:#ccc;}#graph-div :root{--mermaid-font-family:"trebuchet ms",verdana,arial,sans-serif;}</style><g></g><defs><marker orient="auto" markerHeight="18" markerWidth="18" refY="9" refX="0" id="ONLY_ONE_START"><path d="M9,0 L9,18 M15,0 L15,18" fill="none" stroke="gray"></path></marker></defs><defs><marker orient="auto" markerHeight="18" markerWidth="18" refY="9" refX="18" id="ONLY_ONE_END"><path d="M3,0 L3,18 M9,0 L9,18" fill="none" stroke="gray"></path></marker></defs><defs><marker orient="auto" markerHeight="18" markerWidth="30" refY="9" refX="0" id="ZERO_OR_ONE_START"><circle r="6" cy="9" cx="21" fill="white" stroke="gray"></circle><path d="M9,0 L9,18" fill="none" stroke="gray"></path></marker></defs><defs><marker orient="auto" markerHeight="18" markerWidth="30" refY="9" refX="30" id="ZERO_OR_ONE_END"><circle r="6" cy="9" cx="9" fill="white" stroke="gray"></circle><path d="M21,0 L21,18" fill="none" stroke="gray"></path></marker></defs><defs><marker orient="auto" markerHeight="36" markerWidth="45" refY="18" refX="18" id="ONE_OR_MORE_START"><path d="M0,18 Q 18,0 36,18 Q 18,36 0,18 M42,9 L42,27" fill="none" stroke="gray"></path></marker></defs><defs><marker orient="auto" markerHeight="36" markerWidth="45" refY="18" refX="27" id="ONE_OR_MORE_END"><path d="M3,9 L3,27 M9,18 Q27,0 45,18 Q27,36 9,18" fill="none" stroke="gray"></path></marker></defs><defs><marker orient="auto" markerHeight="36" markerWidth="57" refY="18" refX="18" id="ZERO_OR_MORE_START"><circle r="6" cy="18" cx="48" fill="white" stroke="gray"></circle><path d="M0,18 Q18,0 36,18 Q18,36 0,18" fill="none" stroke="gray"></path></marker></defs><defs><marker orient="auto" markerHeight="36" markerWidth="57" refY="18" refX="39" id="ZERO_OR_MORE_END"><circle r="6" cy="18" cx="9" fill="white" stroke="gray"></circle><path d="M21,18 Q39,0 57,18 Q39,36 21,18" fill="none" stroke="gray"></path></marker></defs><path style="stroke: gray; fill: none;" marker-start="url(#ONE_OR_MORE_START)" marker-end="url(#ONLY_ONE_END)" d="M806.8349895477295,419.5670036478506L704.2296752929688,437.3058363732088C601.624361038208,455.04466909856706,396.4137325286865,490.52233454928347,288.6514277449108,517.1778339413084C180.88912296113514,543.8333333333334,170.57514190310522,561.6666666666666,165.4181513740903,570.5833333333334L160.26116084507532,579.5" class="er relationshipLine"></path><path style="stroke: gray; fill: none;" marker-start="url(#ONE_OR_MORE_START)" marker-end="url(#ONLY_ONE_END)" d="M867.956865310669,465L867.956865310669,475.1666666666667C867.956865310669,485.3333333333333,867.956865310669,505.6666666666667,846.1967089970907,526.3783255103677C824.4365526835123,547.0899843540689,780.9162400563558,568.1799687081378,759.1560837427775,578.7249608851722L737.3959274291992,589.2699530622067" class="er relationshipLine"></path><path style="stroke: gray; fill: none;" marker-start="url(#ONE_OR_MORE_START)" marker-end="url(#ONLY_ONE_END)" d="M90.59712219238281,476L90.59712219238281,484.3333333333333C90.59712219238281,492.6666666666667,90.59712219238281,509.3333333333333,95.6923602876209,526.5833333333334C100.787598382859,543.8333333333334,110.97807457333518,561.6666666666666,116.07331266857328,570.5833333333334L121.16855076381138,579.5" class="er relationshipLine"></path><path style="stroke: gray; fill: none;" marker-start="url(#ONE_OR_MORE_START)" marker-end="url(#ONLY_ONE_END)" d="M148.98221536008467,198L139.25136649880102,213.66666666666666C129.52051763751737,229.33333333333334,110.05881991495009,260.6666666666667,100.32797105366645,284.6666666666667C90.59712219238281,308.6666666666667,90.59712219238281,325.3333333333333,90.59712219238281,333.6666666666667L90.59712219238281,342" class="er relationshipLine"></path><path style="stroke: gray; fill: none;" marker-start="url(#ONE_OR_MORE_START)" marker-end="url(#ONLY_ONE_END)" d="M232.46420779731704,198L242.25402383429173,213.66666666666666C252.04383987126639,229.33333333333334,271.6234719452157,260.6666666666667,281.4132879821904,295.8333333333333C291.20310401916504,331,291.20310401916504,370,291.20310401916504,409C291.20310401916504,448,291.20310401916504,487,348.9019079208374,519.2428995253943C406.60071182250977,551.4857990507885,521.9983196258545,576.971598101577,579.6971235275269,589.7144976269713L637.3959274291992,602.4573971523655" class="er relationshipLine"></path><path style="stroke: gray; fill: none;" marker-start="url(#ONE_OR_MORE_START)" marker-end="url(#ONLY_ONE_END)" d="M803.6318645477295,242L803.6318645477295,250.33333333333334C803.6318645477295,258.6666666666667,803.6318645477295,275.3333333333333,787.0074321225158,296.9166666666667C770.3829996973021,318.5,737.1341348468746,345,720.5097024216611,358.25L703.8852699964474,371.5" class="er relationshipLine"></path><path style="stroke: gray; fill: none;" marker-start="url(#ONE_OR_MORE_START)" marker-end="url(#ONLY_ONE_END)" d="M510.0381145477295,242L510.0381145477295,250.33333333333334C510.0381145477295,258.6666666666667,510.0381145477295,275.3333333333333,526.6625469729432,296.9166666666667C543.2869793981569,318.5,576.5358442485842,345,593.160276673798,358.25L609.7847090990116,371.5" class="er relationshipLine"></path><g transform="translate(89.38515853881836,579.5 )" id="entity-Supplier-6cd2e528-c9e2-4e6b-9430-129b36ce083a"><rect height="68" width="102.42392539978027" y="0" x="0" class="er entityBox"></rect><text style="dominant-baseline: middle; text-anchor: middle; font-size: 12px;" transform="translate(51.21196269989014,12)" y="0" x="0" id="text-entity-Supplier-6cd2e528-c9e2-4e6b-9430-129b36ce083a" class="er entityLabel">Supplier</text><rect height="22" width="67.42499923706055" y="24" x="0" class="er attributeBoxOdd"></rect><text style="dominant-baseline: middle; font-size: 10.2px;" transform="translate(5,35)" y="0" x="0" id="text-entity-Supplier-6cd2e528-c9e2-4e6b-9430-129b36ce083a-attr-1-type" class="er entityLabel">BigAutoField</text><rect height="22" width="34.99892616271973" y="24" x="67.42499923706055" class="er attributeBoxOdd"></rect><text style="dominant-baseline: middle; font-size: 10.2px;" transform="translate(72.42499923706055,35)" y="0" x="0" id="text-entity-Supplier-6cd2e528-c9e2-4e6b-9430-129b36ce083a-attr-1-name" class="er entityLabel">id</text><rect height="22" width="67.42499923706055" y="46" x="0" class="er attributeBoxEven"></rect><text style="dominant-baseline: middle; font-size: 10.2px;" transform="translate(5,57)" y="0" x="0" id="text-entity-Supplier-6cd2e528-c9e2-4e6b-9430-129b36ce083a-attr-2-type" class="er entityLabel">CharField</text><rect height="22" width="34.99892616271973" y="46" x="67.42499923706055" class="er attributeBoxEven"></rect><text style="dominant-baseline: middle; font-size: 10.2px;" transform="translate(72.42499923706055,57)" y="0" x="0" id="text-entity-Supplier-6cd2e528-c9e2-4e6b-9430-129b36ce083a-attr-2-name" class="er entityLabel">name</text></g><g transform="translate(806.8349895477295,353 )" id="entity-SupplierPart-181a3446-c328-49d7-8cc0-5cb68f7b787a"><rect height="112" width="122.2437515258789" y="0" x="0" class="er entityBox"></rect><text style="dominant-baseline: middle; text-anchor: middle; font-size: 12px;" transform="translate(61.12187576293945,12)" y="0" x="0" id="text-entity-SupplierPart-181a3446-c328-49d7-8cc0-5cb68f7b787a" class="er entityLabel">SupplierPart</text><rect height="22" width="67.42499923706055" y="24" x="0" class="er attributeBoxOdd"></rect><text style="dominant-baseline: middle; font-size: 10.2px;" transform="translate(5,35)" y="0" x="0" id="text-entity-SupplierPart-181a3446-c328-49d7-8cc0-5cb68f7b787a-attr-1-type" class="er entityLabel">BigAutoField</text><rect height="22" width="54.81875228881836" y="24" x="67.42499923706055" class="er attributeBoxOdd"></rect><text style="dominant-baseline: middle; font-size: 10.2px;" transform="translate(72.42499923706055,35)" y="0" x="0" id="text-entity-SupplierPart-181a3446-c328-49d7-8cc0-5cb68f7b787a-attr-1-name" class="er entityLabel">id</text><rect height="22" width="67.42499923706055" y="46" x="0" class="er attributeBoxEven"></rect><text style="dominant-baseline: middle; font-size: 10.2px;" transform="translate(5,57)" y="0" x="0" id="text-entity-SupplierPart-181a3446-c328-49d7-8cc0-5cb68f7b787a-attr-2-type" class="er entityLabel">ForeignKey</text><rect height="22" width="54.81875228881836" y="46" x="67.42499923706055" class="er attributeBoxEven"></rect><text style="dominant-baseline: middle; font-size: 10.2px;" transform="translate(72.42499923706055,57)" y="0" x="0" id="text-entity-SupplierPart-181a3446-c328-49d7-8cc0-5cb68f7b787a-attr-2-name" class="er entityLabel">supplier</text><rect height="22" width="67.42499923706055" y="68" x="0" class="er attributeBoxOdd"></rect><text style="dominant-baseline: middle; font-size: 10.2px;" transform="translate(5,79)" y="0" x="0" id="text-entity-SupplierPart-181a3446-c328-49d7-8cc0-5cb68f7b787a-attr-3-type" class="er entityLabel">ForeignKey</text><rect height="22" width="54.81875228881836" y="68" x="67.42499923706055" class="er attributeBoxOdd"></rect><text style="dominant-baseline: middle; font-size: 10.2px;" transform="translate(72.42499923706055,79)" y="0" x="0" id="text-entity-SupplierPart-181a3446-c328-49d7-8cc0-5cb68f7b787a-attr-3-name" class="er entityLabel">part</text><rect height="22" width="67.42499923706055" y="90" x="0" class="er attributeBoxEven"></rect><text style="dominant-baseline: middle; font-size: 10.2px;" transform="translate(5,101)" y="0" x="0" id="text-entity-SupplierPart-181a3446-c328-49d7-8cc0-5cb68f7b787a-attr-4-type" class="er entityLabel">CharField</text><rect height="22" width="54.81875228881836" y="90" x="67.42499923706055" class="er attributeBoxEven"></rect><text style="dominant-baseline: middle; font-size: 10.2px;" transform="translate(72.42499923706055,101)" y="0" x="0" id="text-entity-SupplierPart-181a3446-c328-49d7-8cc0-5cb68f7b787a-attr-4-name" class="er entityLabel">unique_id</text></g><g transform="translate(20,342 )" id="entity-PurchaseOrder-4c0c47df-71ce-4e6c-a621-bf70182ee654"><rect height="134" width="141.19424057006836" y="0" x="0" class="er entityBox"></rect><text style="dominant-baseline: middle; text-anchor: middle; font-size: 12px;" transform="translate(70.59712028503418,12)" y="0" x="0" id="text-entity-PurchaseOrder-4c0c47df-71ce-4e6c-a621-bf70182ee654" class="er entityLabel">PurchaseOrder</text><rect height="22" width="68.7437515258789" y="24" x="0" class="er attributeBoxOdd"></rect><text style="dominant-baseline: middle; font-size: 10.2px;" transform="translate(5,35)" y="0" x="0" id="text-entity-PurchaseOrder-4c0c47df-71ce-4e6c-a621-bf70182ee654-attr-1-type" class="er entityLabel">BigAutoField</text><rect height="22" width="72.45048904418945" y="24" x="68.7437515258789" class="er attributeBoxOdd"></rect><text style="dominant-baseline: middle; font-size: 10.2px;" transform="translate(73.7437515258789,35)" y="0" x="0" id="text-entity-PurchaseOrder-4c0c47df-71ce-4e6c-a621-bf70182ee654-attr-1-name" class="er entityLabel">id</text><rect height="22" width="68.7437515258789" y="46" x="0" class="er attributeBoxEven"></rect><text style="dominant-baseline: middle; font-size: 10.2px;" transform="translate(5,57)" y="0" x="0" id="text-entity-PurchaseOrder-4c0c47df-71ce-4e6c-a621-bf70182ee654-attr-2-type" class="er entityLabel">CharField</text><rect height="22" width="72.45048904418945" y="46" x="68.7437515258789" class="er attributeBoxEven"></rect><text style="dominant-baseline: middle; font-size: 10.2px;" transform="translate(73.7437515258789,57)" y="0" x="0" id="text-entity-PurchaseOrder-4c0c47df-71ce-4e6c-a621-bf70182ee654-attr-2-name" class="er entityLabel">number</text><rect height="22" width="68.7437515258789" y="68" x="0" class="er attributeBoxOdd"></rect><text style="dominant-baseline: middle; font-size: 10.2px;" transform="translate(5,79)" y="0" x="0" id="text-entity-PurchaseOrder-4c0c47df-71ce-4e6c-a621-bf70182ee654-attr-3-type" class="er entityLabel">DateField</text><rect height="22" width="72.45048904418945" y="68" x="68.7437515258789" class="er attributeBoxOdd"></rect><text style="dominant-baseline: middle; font-size: 10.2px;" transform="translate(73.7437515258789,79)" y="0" x="0" id="text-entity-PurchaseOrder-4c0c47df-71ce-4e6c-a621-bf70182ee654-attr-3-name" class="er entityLabel">ordered_on</text><rect height="22" width="68.7437515258789" y="90" x="0" class="er attributeBoxEven"></rect><text style="dominant-baseline: middle; font-size: 10.2px;" transform="translate(5,101)" y="0" x="0" id="text-entity-PurchaseOrder-4c0c47df-71ce-4e6c-a621-bf70182ee654-attr-4-type" class="er entityLabel">BooleanField</text><rect height="22" width="72.45048904418945" y="90" x="68.7437515258789" class="er attributeBoxEven"></rect><text style="dominant-baseline: middle; font-size: 10.2px;" transform="translate(73.7437515258789,101)" y="0" x="0" id="text-entity-PurchaseOrder-4c0c47df-71ce-4e6c-a621-bf70182ee654-attr-4-name" class="er entityLabel">is_emergency</text><rect height="22" width="68.7437515258789" y="112" x="0" class="er attributeBoxOdd"></rect><text style="dominant-baseline: middle; font-size: 10.2px;" transform="translate(5,123)" y="0" x="0" id="text-entity-PurchaseOrder-4c0c47df-71ce-4e6c-a621-bf70182ee654-attr-5-type" class="er entityLabel">ForeignKey</text><rect height="22" width="72.45048904418945" y="112" x="68.7437515258789" class="er attributeBoxOdd"></rect><text style="dominant-baseline: middle; font-size: 10.2px;" transform="translate(73.7437515258789,123)" y="0" x="0" id="text-entity-PurchaseOrder-4c0c47df-71ce-4e6c-a621-bf70182ee654-attr-5-name" class="er entityLabel">supplier</text></g><g transform="translate(99.7239761352539,64 )" id="entity-PurchaseOrderItem-676b73a1-bfa0-497f-937f-53c17c6eb8f2"><rect height="134" width="181.7462921142578" y="0" x="0" class="er entityBox"></rect><text style="dominant-baseline: middle; text-anchor: middle; font-size: 12px;" transform="translate(90.8731460571289,12)" y="0" x="0" id="text-entity-PurchaseOrderItem-676b73a1-bfa0-497f-937f-53c17c6eb8f2" class="er entityLabel">PurchaseOrderItem</text><rect height="22" width="100.41875457763672" y="24" x="0" class="er attributeBoxOdd"></rect><text style="dominant-baseline: middle; font-size: 10.2px;" transform="translate(5,35)" y="0" x="0" id="text-entity-PurchaseOrderItem-676b73a1-bfa0-497f-937f-53c17c6eb8f2-attr-1-type" class="er entityLabel">BigAutoField</text><rect height="22" width="81.3275375366211" y="24" x="100.41875457763672" class="er attributeBoxOdd"></rect><text style="dominant-baseline: middle; font-size: 10.2px;" transform="translate(105.41875457763672,35)" y="0" x="0" id="text-entity-PurchaseOrderItem-676b73a1-bfa0-497f-937f-53c17c6eb8f2-attr-1-name" class="er entityLabel">id</text><rect height="22" width="100.41875457763672" y="46" x="0" class="er attributeBoxEven"></rect><text style="dominant-baseline: middle; font-size: 10.2px;" transform="translate(5,57)" y="0" x="0" id="text-entity-PurchaseOrderItem-676b73a1-bfa0-497f-937f-53c17c6eb8f2-attr-2-type" class="er entityLabel">ForeignKey</text><rect height="22" width="81.3275375366211" y="46" x="100.41875457763672" class="er attributeBoxEven"></rect><text style="dominant-baseline: middle; font-size: 10.2px;" transform="translate(105.41875457763672,57)" y="0" x="0" id="text-entity-PurchaseOrderItem-676b73a1-bfa0-497f-937f-53c17c6eb8f2-attr-2-name" class="er entityLabel">purchase_order</text><rect height="22" width="100.41875457763672" y="68" x="0" class="er attributeBoxOdd"></rect><text style="dominant-baseline: middle; font-size: 10.2px;" transform="translate(5,79)" y="0" x="0" id="text-entity-PurchaseOrderItem-676b73a1-bfa0-497f-937f-53c17c6eb8f2-attr-3-type" class="er entityLabel">ForeignKey</text><rect height="22" width="81.3275375366211" y="68" x="100.41875457763672" class="er attributeBoxOdd"></rect><text style="dominant-baseline: middle; font-size: 10.2px;" transform="translate(105.41875457763672,79)" y="0" x="0" id="text-entity-PurchaseOrderItem-676b73a1-bfa0-497f-937f-53c17c6eb8f2-attr-3-name" class="er entityLabel">part</text><rect height="22" width="100.41875457763672" y="90" x="0" class="er attributeBoxEven"></rect><text style="dominant-baseline: middle; font-size: 10.2px;" transform="translate(5,101)" y="0" x="0" id="text-entity-PurchaseOrderItem-676b73a1-bfa0-497f-937f-53c17c6eb8f2-attr-4-type" class="er entityLabel">PositiveIntegerField</text><rect height="22" width="81.3275375366211" y="90" x="100.41875457763672" class="er attributeBoxEven"></rect><text style="dominant-baseline: middle; font-size: 10.2px;" transform="translate(105.41875457763672,101)" y="0" x="0" id="text-entity-PurchaseOrderItem-676b73a1-bfa0-497f-937f-53c17c6eb8f2-attr-4-name" class="er entityLabel">quantity</text><rect height="22" width="100.41875457763672" y="112" x="0" class="er attributeBoxOdd"></rect><text style="dominant-baseline: middle; font-size: 10.2px;" transform="translate(5,123)" y="0" x="0" id="text-entity-PurchaseOrderItem-676b73a1-bfa0-497f-937f-53c17c6eb8f2-attr-5-type" class="er entityLabel">PositiveIntegerField</text><rect height="22" width="81.3275375366211" y="112" x="100.41875457763672" class="er attributeBoxOdd"></rect><text style="dominant-baseline: middle; font-size: 10.2px;" transform="translate(105.41875457763672,123)" y="0" x="0" id="text-entity-PurchaseOrderItem-676b73a1-bfa0-497f-937f-53c17c6eb8f2-attr-5-name" class="er entityLabel">receipted</text></g><g transform="translate(706.8349895477295,20 )" id="entity-PurchaseOrderImport-11c9e3e3-f2c7-4a0c-b4bf-9afb9d68f811"><rect height="222" width="193.59375381469727" y="0" x="0" class="er entityBox"></rect><text style="dominant-baseline: middle; text-anchor: middle; font-size: 12px;" transform="translate(96.79687690734863,12)" y="0" x="0" id="text-entity-PurchaseOrderImport-11c9e3e3-f2c7-4a0c-b4bf-9afb9d68f811" class="er entityLabel">PurchaseOrderImport</text><rect height="22" width="125.16875457763672" y="24" x="0" class="er attributeBoxOdd"></rect><text style="dominant-baseline: middle; font-size: 10.2px;" transform="translate(5,35)" y="0" x="0" id="text-entity-PurchaseOrderImport-11c9e3e3-f2c7-4a0c-b4bf-9afb9d68f811-attr-1-type" class="er entityLabel">BigAutoField</text><rect height="22" width="68.42499923706055" y="24" x="125.16875457763672" class="er attributeBoxOdd"></rect><text style="dominant-baseline: middle; font-size: 10.2px;" transform="translate(130.16875457763672,35)" y="0" x="0" id="text-entity-PurchaseOrderImport-11c9e3e3-f2c7-4a0c-b4bf-9afb9d68f811-attr-1-name" class="er entityLabel">id</text><rect height="22" width="125.16875457763672" y="46" x="0" class="er attributeBoxEven"></rect><text style="dominant-baseline: middle; font-size: 10.2px;" transform="translate(5,57)" y="0" x="0" id="text-entity-PurchaseOrderImport-11c9e3e3-f2c7-4a0c-b4bf-9afb9d68f811-attr-2-type" class="er entityLabel">DateTimeField</text><rect height="22" width="68.42499923706055" y="46" x="125.16875457763672" class="er attributeBoxEven"></rect><text style="dominant-baseline: middle; font-size: 10.2px;" transform="translate(130.16875457763672,57)" y="0" x="0" id="text-entity-PurchaseOrderImport-11c9e3e3-f2c7-4a0c-b4bf-9afb9d68f811-attr-2-name" class="er entityLabel">uploaded_on</text><rect height="22" width="125.16875457763672" y="68" x="0" class="er attributeBoxOdd"></rect><text style="dominant-baseline: middle; font-size: 10.2px;" transform="translate(5,79)" y="0" x="0" id="text-entity-PurchaseOrderImport-11c9e3e3-f2c7-4a0c-b4bf-9afb9d68f811-attr-3-type" class="er entityLabel">ForeignKey</text><rect height="22" width="68.42499923706055" y="68" x="125.16875457763672" class="er attributeBoxOdd"></rect><text style="dominant-baseline: middle; font-size: 10.2px;" transform="translate(130.16875457763672,79)" y="0" x="0" id="text-entity-PurchaseOrderImport-11c9e3e3-f2c7-4a0c-b4bf-9afb9d68f811-attr-3-name" class="er entityLabel">uploaded_by</text><rect height="22" width="125.16875457763672" y="90" x="0" class="er attributeBoxEven"></rect><text style="dominant-baseline: middle; font-size: 10.2px;" transform="translate(5,101)" y="0" x="0" id="text-entity-PurchaseOrderImport-11c9e3e3-f2c7-4a0c-b4bf-9afb9d68f811-attr-4-type" class="er entityLabel">PositiveSmallIntegerField</text><rect height="22" width="68.42499923706055" y="90" x="125.16875457763672" class="er attributeBoxEven"></rect><text style="dominant-baseline: middle; font-size: 10.2px;" transform="translate(130.16875457763672,101)" y="0" x="0" id="text-entity-PurchaseOrderImport-11c9e3e3-f2c7-4a0c-b4bf-9afb9d68f811-attr-4-name" class="er entityLabel">status</text><rect height="22" width="125.16875457763672" y="112" x="0" class="er attributeBoxOdd"></rect><text style="dominant-baseline: middle; font-size: 10.2px;" transform="translate(5,123)" y="0" x="0" id="text-entity-PurchaseOrderImport-11c9e3e3-f2c7-4a0c-b4bf-9afb9d68f811-attr-5-type" class="er entityLabel">PositiveIntegerField</text><rect height="22" width="68.42499923706055" y="112" x="125.16875457763672" class="er attributeBoxOdd"></rect><text style="dominant-baseline: middle; font-size: 10.2px;" transform="translate(130.16875457763672,123)" y="0" x="0" id="text-entity-PurchaseOrderImport-11c9e3e3-f2c7-4a0c-b4bf-9afb9d68f811-attr-5-name" class="er entityLabel">successes</text><rect height="22" width="125.16875457763672" y="134" x="0" class="er attributeBoxEven"></rect><text style="dominant-baseline: middle; font-size: 10.2px;" transform="translate(5,145)" y="0" x="0" id="text-entity-PurchaseOrderImport-11c9e3e3-f2c7-4a0c-b4bf-9afb9d68f811-attr-6-type" class="er entityLabel">PositiveIntegerField</text><rect height="22" width="68.42499923706055" y="134" x="125.16875457763672" class="er attributeBoxEven"></rect><text style="dominant-baseline: middle; font-size: 10.2px;" transform="translate(130.16875457763672,145)" y="0" x="0" id="text-entity-PurchaseOrderImport-11c9e3e3-f2c7-4a0c-b4bf-9afb9d68f811-attr-6-name" class="er entityLabel">failures</text><rect height="22" width="125.16875457763672" y="156" x="0" class="er attributeBoxOdd"></rect><text style="dominant-baseline: middle; font-size: 10.2px;" transform="translate(5,167)" y="0" x="0" id="text-entity-PurchaseOrderImport-11c9e3e3-f2c7-4a0c-b4bf-9afb9d68f811-attr-7-type" class="er entityLabel">PositiveIntegerField</text><rect height="22" width="68.42499923706055" y="156" x="125.16875457763672" class="er attributeBoxOdd"></rect><text style="dominant-baseline: middle; font-size: 10.2px;" transform="translate(130.16875457763672,167)" y="0" x="0" id="text-entity-PurchaseOrderImport-11c9e3e3-f2c7-4a0c-b4bf-9afb9d68f811-attr-7-name" class="er entityLabel">skipped</text><rect height="22" width="125.16875457763672" y="178" x="0" class="er attributeBoxEven"></rect><text style="dominant-baseline: middle; font-size: 10.2px;" transform="translate(5,189)" y="0" x="0" id="text-entity-PurchaseOrderImport-11c9e3e3-f2c7-4a0c-b4bf-9afb9d68f811-attr-8-type" class="er entityLabel">FileField</text><rect height="22" width="68.42499923706055" y="178" x="125.16875457763672" class="er attributeBoxEven"></rect><text style="dominant-baseline: middle; font-size: 10.2px;" transform="translate(130.16875457763672,189)" y="0" x="0" id="text-entity-PurchaseOrderImport-11c9e3e3-f2c7-4a0c-b4bf-9afb9d68f811-attr-8-name" class="er entityLabel">data</text><rect height="22" width="125.16875457763672" y="200" x="0" class="er attributeBoxOdd"></rect><text style="dominant-baseline: middle; font-size: 10.2px;" transform="translate(5,211)" y="0" x="0" id="text-entity-PurchaseOrderImport-11c9e3e3-f2c7-4a0c-b4bf-9afb9d68f811-attr-9-type" class="er entityLabel">FileField</text><rect height="22" width="68.42499923706055" y="200" x="125.16875457763672" class="er attributeBoxOdd"></rect><text style="dominant-baseline: middle; font-size: 10.2px;" transform="translate(130.16875457763672,211)" y="0" x="0" id="text-entity-PurchaseOrderImport-11c9e3e3-f2c7-4a0c-b4bf-9afb9d68f811-attr-9-name" class="er entityLabel">report</text></g><g transform="translate(413.2412395477295,20 )" id="entity-SupplierPartsImport-7e1e4519-6318-48e0-877f-b51670db8fc6"><rect height="222" width="193.59375381469727" y="0" x="0" class="er entityBox"></rect><text style="dominant-baseline: middle; text-anchor: middle; font-size: 12px;" transform="translate(96.79687690734863,12)" y="0" x="0" id="text-entity-SupplierPartsImport-7e1e4519-6318-48e0-877f-b51670db8fc6" class="er entityLabel">SupplierPartsImport</text><rect height="22" width="125.16875457763672" y="24" x="0" class="er attributeBoxOdd"></rect><text style="dominant-baseline: middle; font-size: 10.2px;" transform="translate(5,35)" y="0" x="0" id="text-entity-SupplierPartsImport-7e1e4519-6318-48e0-877f-b51670db8fc6-attr-1-type" class="er entityLabel">BigAutoField</text><rect height="22" width="68.42499923706055" y="24" x="125.16875457763672" class="er attributeBoxOdd"></rect><text style="dominant-baseline: middle; font-size: 10.2px;" transform="translate(130.16875457763672,35)" y="0" x="0" id="text-entity-SupplierPartsImport-7e1e4519-6318-48e0-877f-b51670db8fc6-attr-1-name" class="er entityLabel">id</text><rect height="22" width="125.16875457763672" y="46" x="0" class="er attributeBoxEven"></rect><text style="dominant-baseline: middle; font-size: 10.2px;" transform="translate(5,57)" y="0" x="0" id="text-entity-SupplierPartsImport-7e1e4519-6318-48e0-877f-b51670db8fc6-attr-2-type" class="er entityLabel">DateTimeField</text><rect height="22" width="68.42499923706055" y="46" x="125.16875457763672" class="er attributeBoxEven"></rect><text style="dominant-baseline: middle; font-size: 10.2px;" transform="translate(130.16875457763672,57)" y="0" x="0" id="text-entity-SupplierPartsImport-7e1e4519-6318-48e0-877f-b51670db8fc6-attr-2-name" class="er entityLabel">uploaded_on</text><rect height="22" width="125.16875457763672" y="68" x="0" class="er attributeBoxOdd"></rect><text style="dominant-baseline: middle; font-size: 10.2px;" transform="translate(5,79)" y="0" x="0" id="text-entity-SupplierPartsImport-7e1e4519-6318-48e0-877f-b51670db8fc6-attr-3-type" class="er entityLabel">ForeignKey</text><rect height="22" width="68.42499923706055" y="68" x="125.16875457763672" class="er attributeBoxOdd"></rect><text style="dominant-baseline: middle; font-size: 10.2px;" transform="translate(130.16875457763672,79)" y="0" x="0" id="text-entity-SupplierPartsImport-7e1e4519-6318-48e0-877f-b51670db8fc6-attr-3-name" class="er entityLabel">uploaded_by</text><rect height="22" width="125.16875457763672" y="90" x="0" class="er attributeBoxEven"></rect><text style="dominant-baseline: middle; font-size: 10.2px;" transform="translate(5,101)" y="0" x="0" id="text-entity-SupplierPartsImport-7e1e4519-6318-48e0-877f-b51670db8fc6-attr-4-type" class="er entityLabel">PositiveSmallIntegerField</text><rect height="22" width="68.42499923706055" y="90" x="125.16875457763672" class="er attributeBoxEven"></rect><text style="dominant-baseline: middle; font-size: 10.2px;" transform="translate(130.16875457763672,101)" y="0" x="0" id="text-entity-SupplierPartsImport-7e1e4519-6318-48e0-877f-b51670db8fc6-attr-4-name" class="er entityLabel">status</text><rect height="22" width="125.16875457763672" y="112" x="0" class="er attributeBoxOdd"></rect><text style="dominant-baseline: middle; font-size: 10.2px;" transform="translate(5,123)" y="0" x="0" id="text-entity-SupplierPartsImport-7e1e4519-6318-48e0-877f-b51670db8fc6-attr-5-type" class="er entityLabel">PositiveIntegerField</text><rect height="22" width="68.42499923706055" y="112" x="125.16875457763672" class="er attributeBoxOdd"></rect><text style="dominant-baseline: middle; font-size: 10.2px;" transform="translate(130.16875457763672,123)" y="0" x="0" id="text-entity-SupplierPartsImport-7e1e4519-6318-48e0-877f-b51670db8fc6-attr-5-name" class="er entityLabel">successes</text><rect height="22" width="125.16875457763672" y="134" x="0" class="er attributeBoxEven"></rect><text style="dominant-baseline: middle; font-size: 10.2px;" transform="translate(5,145)" y="0" x="0" id="text-entity-SupplierPartsImport-7e1e4519-6318-48e0-877f-b51670db8fc6-attr-6-type" class="er entityLabel">PositiveIntegerField</text><rect height="22" width="68.42499923706055" y="134" x="125.16875457763672" class="er attributeBoxEven"></rect><text style="dominant-baseline: middle; font-size: 10.2px;" transform="translate(130.16875457763672,145)" y="0" x="0" id="text-entity-SupplierPartsImport-7e1e4519-6318-48e0-877f-b51670db8fc6-attr-6-name" class="er entityLabel">failures</text><rect height="22" width="125.16875457763672" y="156" x="0" class="er attributeBoxOdd"></rect><text style="dominant-baseline: middle; font-size: 10.2px;" transform="translate(5,167)" y="0" x="0" id="text-entity-SupplierPartsImport-7e1e4519-6318-48e0-877f-b51670db8fc6-attr-7-type" class="er entityLabel">PositiveIntegerField</text><rect height="22" width="68.42499923706055" y="156" x="125.16875457763672" class="er attributeBoxOdd"></rect><text style="dominant-baseline: middle; font-size: 10.2px;" transform="translate(130.16875457763672,167)" y="0" x="0" id="text-entity-SupplierPartsImport-7e1e4519-6318-48e0-877f-b51670db8fc6-attr-7-name" class="er entityLabel">skipped</text><rect height="22" width="125.16875457763672" y="178" x="0" class="er attributeBoxEven"></rect><text style="dominant-baseline: middle; font-size: 10.2px;" transform="translate(5,189)" y="0" x="0" id="text-entity-SupplierPartsImport-7e1e4519-6318-48e0-877f-b51670db8fc6-attr-8-type" class="er entityLabel">FileField</text><rect height="22" width="68.42499923706055" y="178" x="125.16875457763672" class="er attributeBoxEven"></rect><text style="dominant-baseline: middle; font-size: 10.2px;" transform="translate(130.16875457763672,189)" y="0" x="0" id="text-entity-SupplierPartsImport-7e1e4519-6318-48e0-877f-b51670db8fc6-attr-8-name" class="er entityLabel">data</text><rect height="22" width="125.16875457763672" y="200" x="0" class="er attributeBoxOdd"></rect><text style="dominant-baseline: middle; font-size: 10.2px;" transform="translate(5,211)" y="0" x="0" id="text-entity-SupplierPartsImport-7e1e4519-6318-48e0-877f-b51670db8fc6-attr-9-type" class="er entityLabel">FileField</text><rect height="22" width="68.42499923706055" y="200" x="125.16875457763672" class="er attributeBoxOdd"></rect><text style="dominant-baseline: middle; font-size: 10.2px;" transform="translate(130.16875457763672,211)" y="0" x="0" id="text-entity-SupplierPartsImport-7e1e4519-6318-48e0-877f-b51670db8fc6-attr-9-name" class="er entityLabel">report</text></g><g transform="translate(637.3959274291992,576 )" id="entity-Part-49a3bab9-9720-45d3-9653-b9380c1db466"><rect height="75" width="100" y="0" x="0" class="er entityBox"></rect><text style="dominant-baseline: middle; text-anchor: middle; font-size: 12px;" transform="translate(50,37.5)" y="0" x="0" id="text-entity-Part-49a3bab9-9720-45d3-9653-b9380c1db466" class="er entityLabel">Part</text></g><g transform="translate(606.8349895477295,371.5 )" id="entity-User-25205869-6e44-40fa-a4a8-c563b9d2bf9c"><rect height="75" width="100" y="0" x="0" class="er entityBox"></rect><text style="dominant-baseline: middle; text-anchor: middle; font-size: 12px;" transform="translate(50,37.5)" y="0" x="0" id="text-entity-User-25205869-6e44-40fa-a4a8-c563b9d2bf9c" class="er entityLabel">User</text></g><rect height="14" width="43.09101486206055" y="471.32012939453125" x="453.2066287994385" class="er relationshipLabelBox"></rect><text style="text-anchor: middle; dominant-baseline: middle; font-size: 12px;" y="478.32012939453125" x="474.75213623046875" id="rel1" class="er relationshipLabel">supplier</text><rect height="14" width="22.45429801940918" y="537.1109619140625" x="811.7864618301392" class="er relationshipLabelBox"></rect><text style="text-anchor: middle; dominant-baseline: middle; font-size: 12px;" y="544.1109619140625" x="823.0136108398438" id="rel2" class="er relationshipLabel">part</text><rect height="14" width="43.09101486206055" y="523.31396484375" x="75.32269477844238" class="er relationshipLabelBox"></rect><text style="text-anchor: middle; dominant-baseline: middle; font-size: 12px;" y="530.31396484375" x="96.86820220947266" id="rel3" class="er relationshipLabel">supplier</text><rect height="14" width="83.53828430175781" y="259.12884521484375" x="67.1342544555664" class="er relationshipLabelBox"></rect><text style="text-anchor: middle; dominant-baseline: middle; font-size: 12px;" y="266.12884521484375" x="108.90339660644531" id="rel4" class="er relationshipLabel">purchase_order</text><rect height="14" width="22.45429801940918" y="496.6947937011719" x="314.67644596099854" class="er relationshipLabelBox"></rect><text style="text-anchor: middle; dominant-baseline: middle; font-size: 12px;" y="503.6947937011719" x="325.9035949707031" id="rel5" class="er relationshipLabel">part</text><rect height="14" width="68.419921875" y="309.51214599609375" x="734.9284057617188" class="er relationshipLabelBox"></rect><text style="text-anchor: middle; dominant-baseline: middle; font-size: 12px;" y="316.51214599609375" x="769.1383666992188" id="rel6" class="er relationshipLabel">uploaded_by</text><rect height="14" width="68.419921875" y="309.5121765136719" x="510.3216552734375" class="er relationshipLabelBox"></rect><text style="text-anchor: middle; dominant-baseline: middle; font-size: 12px;" y="316.5121765136719" x="544.5316162109375" id="rel7" class="er relationshipLabel">uploaded_by</text></svg>